<svg width="15" height="15" viewBox="0 0 15 15" fill="none" xmlns="http://www.w3.org/2000/svg">
<g clip-path="url(#clip0_412_222)">
<path d="M3.75 11.25C3.75 11.5938 4.03125 11.875 4.375 11.875H5V14.0625C5 14.5813 5.41875 15 5.9375 15C6.45625 15 6.875 14.5813 6.875 14.0625V11.875H8.125V14.0625C8.125 14.5813 8.54375 15 9.0625 15C9.58125 15 10 14.5813 10 14.0625V11.875H10.625C10.9688 11.875 11.25 11.5938 11.25 11.25V5H3.75V11.25ZM2.1875 5C1.66875 5 1.25 5.41875 1.25 5.9375V10.3125C1.25 10.8313 1.66875 11.25 2.1875 11.25C2.70625 11.25 3.125 10.8313 3.125 10.3125V5.9375C3.125 5.41875 2.70625 5 2.1875 5ZM12.8125 5C12.2937 5 11.875 5.41875 11.875 5.9375V10.3125C11.875 10.8313 12.2937 11.25 12.8125 11.25C13.3313 11.25 13.75 10.8313 13.75 10.3125V5.9375C13.75 5.41875 13.3313 5 12.8125 5ZM9.70625 1.35L10.5188 0.5375C10.6438 0.4125 10.6438 0.21875 10.5188 0.09375C10.3938 -0.03125 10.2 -0.03125 10.075 0.09375L9.15 1.01875C8.65625 0.76875 8.09375 0.625 7.5 0.625C6.9 0.625 6.3375 0.76875 5.8375 1.01875L4.90625 0.09375C4.78125 -0.03125 4.5875 -0.03125 4.4625 0.09375C4.3375 0.21875 4.3375 0.4125 4.4625 0.5375L5.28125 1.35625C4.35625 2.0375 3.75 3.13125 3.75 4.375H11.25C11.25 3.13125 10.6438 2.03125 9.70625 1.35ZM6.25 3.125H5.625V2.5H6.25V3.125ZM9.375 3.125H8.75V2.5H9.375V3.125Z" fill="black"/>
</g>
<defs>
<clipPath id="clip0_412_222">
<rect width="15" height="15" fill="white"/>
</clipPath>
</defs>
</svg>
